name D:\school\WTK\thesis\model\3dpredictsim\Results\batch_windlass\Pog_s1_tmt_aCst_d05_k800_WL30_ig24_pas.mot
datacolumns 128
datarows 4
range 1.63266563 1.66531894
endheader
time	pelvis_tilt	pelvis_list	pelvis_rotation	pelvis_tx	pelvis_ty	pelvis_tz	hip_flexion_l	hip_adduction_l	hip_rotation_l	hip_flexion_r	hip_adduction_r	hip_rotation_r	knee_angle_l	knee_angle_r	ankle_angle_l	ankle_angle_r	subtalar_angle_l	subtalar_angle_r	tmt_angle_l	tmt_angle_r	mtp_angle_l	mtp_angle_r	lumbar_extension	lumbar_bending	lumbar_rotation	arm_flex_l	arm_add_l	arm_rot_l	arm_flex_r	arm_add_r	arm_rot_r	elbow_flex_l	elbow_flex_r	pro_sup_l	pro_sup_r	glut_med1_l/activation	glut_med2_l/activation	glut_med3_l/activation	glut_min1_l/activation	glut_min2_l/activation	glut_min3_l/activation	semimem_l/activation	semiten_l/activation	bifemlh_l/activation	bifemsh_l/activation	sar_l/activation	add_long_l/activation	add_brev_l/activation	add_mag1_l/activation	add_mag2_l/activation	add_mag3_l/activation	tfl_l/activation	pect_l/activation	grac_l/activation	glut_max1_l/activation	glut_max2_l/activation	glut_max3_l/activation	iliacus_l/activation	psoas_l/activation	quad_fem_l/activation	gem_l/activation	peri_l/activation	rect_fem_l/activation	vas_med_l/activation	vas_int_l/activation	vas_lat_l/activation	med_gas_l/activation	lat_gas_l/activation	soleus_l/activation	tib_post_l/activation	flex_dig_l/activation	flex_hal_l/activation	tib_ant_l/activation	per_brev_l/activation	per_long_l/activation	per_tert_l/activation	ext_dig_l/activation	ext_hal_l/activation	ercspn_l/activation	intobl_l/activation	extobl_l/activation	glut_med1_r/activation	glut_med2_r/activation	glut_med3_r/activation	glut_min1_r/activation	glut_min2_r/activation	glut_min3_r/activation	semimem_r/activation	semiten_r/activation	bifemlh_r/activation	bifemsh_r/activation	sar_r/activation	add_long_r/activation	add_brev_r/activation	add_mag1_r/activation	add_mag2_r/activation	add_mag3_r/activation	tfl_r/activation	pect_r/activation	grac_r/activation	glut_max1_r/activation	glut_max2_r/activation	glut_max3_r/activation	iliacus_r/activation	psoas_r/activation	quad_fem_r/activation	gem_r/activation	peri_r/activation	rect_fem_r/activation	vas_med_r/activation	vas_int_r/activation	vas_lat_r/activation	med_gas_r/activation	lat_gas_r/activation	soleus_r/activation	tib_post_r/activation	flex_dig_r/activation	flex_hal_r/activation	tib_ant_r/activation	per_brev_r/activation	per_long_r/activation	per_tert_r/activation	ext_dig_r/activation	ext_hal_r/activation	ercspn_r/activation	intobl_r/activation	extobl_r/activation	
          1.63266563	         -2.92046965	          1.75069151	         -6.08873345	          2.04083204	          0.85822213	          0.00187454	         31.81261062	          2.36113277	         -3.11333232	        -17.84805598	         -1.80164503	          7.89191631	        -19.26436225	        -10.23230273	          1.18906861	         -0.38546268	         -0.29742893	         13.01744020	         -0.14756247	         -8.87832619	          0.52554943	         29.72823621	         -1.01001266	         -0.04302420	          1.90986690	         -9.30212833	        -13.74440900	         13.91428400	          6.42724457	        -13.47858063	         17.19930902	         13.90745142	         34.99394320	         86.51662706	         86.51662706	          0.10054797	          0.05000061	          0.05906192	          0.05000061	          0.05000063	          0.05000154	          0.05000142	          0.05907043	          0.16066971	          0.05907021	          0.05000092	          0.08978006	          0.15932173	          0.15384213	          0.14768457	          0.13616979	          0.05000109	          0.05002280	          0.05907057	          0.05907005	          0.13684039	          0.08049660	          0.06691449	          0.06462860	          0.28987072	          0.05000031	          0.05000069	          0.05422730	          0.12643360	          0.13514557	          0.10684816	          0.06547926	          0.05907064	          0.06114606	          0.05000012	          0.05907082	          0.05907071	          0.47063155	          0.33957162	          0.18747800	          0.20826511	          0.55336798	          0.13502146	          0.05309684	          0.09708574	          0.11365850	          0.27030136	          0.08892429	          0.05000018	          0.29863226	          0.19603878	          0.09062781	          0.05000228	          0.05000024	          0.05000020	          0.07025288	          0.08123497	          0.13568373	          0.05695187	          0.05000122	          0.05000183	          0.05000133	          0.27344906	          0.06715336	          0.05000087	          0.05000242	          0.05000173	          0.05000143	          0.30583362	          0.51016119	          0.05000027	          0.05000093	          0.05000020	          0.22421103	          0.08652826	          0.15390083	          0.05550027	          0.27058276	          0.34782546	          0.21350477	          0.19344672	          0.20056984	          0.25773487	          0.05000001	          0.13760466	          0.19176864	          0.05000010	          0.05000003	          0.05000010	          0.05000000	          0.05000011	          0.05000003	
          1.64355007	         -2.90733598	          1.83756616	         -6.34015743	          2.05772382	          0.85714142	          0.00166643	         31.19587952	          2.75464589	         -2.86953543	        -17.57465690	         -2.09178308	          7.65979226	        -18.85682228	        -12.31650952	          0.79589400	         -1.51205764	         -0.87394889	         13.95903581	         -0.21184460	         -9.38605139	          0.71558448	         30.46344537	         -0.78574420	         -0.28758474	          1.98692504	        -10.43973946	        -13.74672909	         13.86873523	          6.10959810	        -13.51677332	         17.37644684	         13.89870455	         36.12763364	         86.51662706	         86.51662706	          0.08510993	          0.05004205	          0.05000010	          0.05907038	          0.05907031	          0.05000149	          0.05000007	          0.05000012	          0.15738364	          0.05000005	          0.05000051	          0.09619585	          0.22344496	          0.13022004	          0.20863828	          0.15003612	          0.05000015	          0.06678305	          0.05000040	          0.05000022	          0.17710290	          0.17668540	          0.05792838	          0.05470488	          0.25208493	          0.16689513	          0.14220074	          0.06978613	          0.23194969	          0.22734599	          0.19174922	          0.05542483	          0.05000029	          0.05175700	          0.05000002	          0.05000051	          0.05000051	          0.62358372	          0.28742983	          0.15869044	          0.54119025	          0.63138734	          0.28920167	          0.05000003	          0.08217805	          0.09620603	          0.22879613	          0.07526982	          0.05000004	          0.25277679	          0.16593671	          0.07671179	          0.05000098	          0.05000010	          0.05000008	          0.05946543	          0.06876138	          0.18727206	          0.25800277	          0.07285689	          0.05000147	          0.05000025	          0.23146062	          0.11234020	          0.05000117	          0.05000066	          0.05000039	          0.05000030	          0.25887234	          0.45619084	          0.05000009	          0.05000038	          0.05000030	          0.18978303	          0.07324233	          0.13028054	          0.13594561	          0.22903428	          0.29441622	          0.18072071	          0.16374264	          0.16977206	          0.21815926	          0.09304661	          0.11647537	          0.16232233	          0.05000019	          0.13570161	          0.05000038	          0.05129137	          0.05112506	          0.05000030	
          1.65443450	         -2.88906022	          1.92760864	         -6.56403224	          2.07483575	          0.85579480	          0.00147070	         30.43918923	          3.13637091	         -2.54537596	        -17.20872979	         -2.36456755	          7.41952953	        -19.03249131	        -14.60491437	          0.42508810	         -2.63076766	         -1.48560580	         14.82788709	         -0.30703895	         -9.66550594	          0.95685092	         30.49474051	         -0.54607395	         -0.54329186	          2.05233110	        -11.56470264	        -13.75510689	         13.87694314	          5.72065478	        -13.56860590	         17.49666261	         13.86915183	         37.25839892	         86.51662706	         86.51662706	          0.21778798	          0.05000007	          0.19328966	          0.05000007	          0.05000007	          0.05000011	          0.05000022	          0.05000034	          0.13428500	          0.05000009	          0.05000045	          0.08142493	          0.18913488	          0.32178979	          0.27222459	          0.18111418	          0.05000020	          0.06978392	          0.10575027	          0.15141366	          0.19542377	          0.16944181	          0.05000018	          0.05000025	          0.34935550	          0.14126813	          0.12036564	          0.05907041	          0.29167114	          0.28876185	          0.24332538	          0.05907033	          0.05000042	          0.05000010	          0.05000003	          0.05000097	          0.05000032	          0.57125405	          0.24329452	          0.13432328	          0.48993133	          0.56456491	          0.24479430	          0.05000001	          0.06955946	          0.08143342	          0.19366410	          0.06371204	          0.05907026	          0.21396250	          0.14045687	          0.06493263	          0.07215059	          0.05000111	          0.05907088	          0.05033442	          0.05820304	          0.22586300	          0.38174069	          0.22504300	          0.11744155	          0.13594599	          0.19591959	          0.09509040	          0.05907184	          0.05215968	          0.05907092	          0.06973510	          0.21912203	          0.40309316	          0.06333633	          0.05907123	          0.05000123	          0.16064150	          0.10254465	          0.11027677	          0.11507110	          0.19386564	          0.24920807	          0.15297071	          0.13859968	          0.14370334	          0.18466058	          0.20729064	          0.14231455	          0.15166922	          0.05002745	          0.23484452	          0.13674396	          0.07558208	          0.05907047	          0.05082777	
          1.66531894	         -2.86771276	          2.02247655	         -6.75701171	          2.09198038	          0.85424229	          0.00129208	         29.49761504	          3.49046496	         -2.16842343	        -16.71925181	         -2.61489985	          7.18416487	        -19.43107706	        -17.13717167	          0.40335418	         -3.65747567	         -2.14779846	         15.59792221	         -0.62134102	         -9.52552151	          1.07635747	         29.37107469	         -0.30625737	         -0.80927305	          2.10546678	        -12.63257168	        -13.77092334	         13.97018165	          5.29168529	        -13.62840674	         17.57018288	         13.78868161	         38.36515759	         86.51662706	         86.51662706	          0.35511090	          0.38168094	          0.53238645	          0.36213001	          0.28273703	          0.41492393	          0.07882605	          0.10229381	          0.11370695	          0.06865746	          0.05000049	          0.06892202	          0.16009289	          0.27237844	          0.23042414	          0.16131782	          0.05000021	          0.05906917	          0.08951241	          0.29633385	          0.24901392	          0.15629694	          0.05000018	          0.05000013	          0.29571137	          0.11957628	          0.26486779	          0.05000007	          0.32012779	          0.32987369	          0.27361324	          0.05000003	          0.05000007	          0.05000003	          0.07874421	          0.05000056	          0.05000101	          0.70282631	          0.20593620	          0.11369770	          0.42632746	          0.60873867	          0.39174643	          0.05771263	          0.07437506	          0.06892917	          0.21880446	          0.05392900	          0.05000008	          0.21405837	          0.11888959	          0.05496225	          0.10195457	          0.05000027	          0.05000056	          0.05000022	          0.05907095	          0.19118139	          0.32312374	          0.19048728	          0.09940830	          0.11507129	          0.27189831	          0.08048926	          0.05000209	          0.05000121	          0.05000124	          0.05902729	          0.18547560	          0.38729745	          0.05361095	          0.05000097	          0.05000013	          0.13597471	          0.08679875	          0.09334359	          0.09740174	          0.16409721	          0.21094172	          0.12948178	          0.11734079	          0.12163760	          0.15630591	          0.19328116	          0.12172909	          0.14294609	          0.10376932	          0.24143510	          0.11574675	          0.10996872	          0.05000009	          0.05000003	
